<?xml version="1.0" encoding="UTF-8"?>
<svg width="180px" height="45px" viewBox="0 0 180 45" version="1.1" xmlns="http://www.w3.org/2000/svg" xmlns:xlink="http://www.w3.org/1999/xlink">
    <!-- Generator: Sketch 54.1 (76490) - https://sketchapp.com -->
    <title>Logo</title>
    <desc>Created with Sketch.</desc>
    <g id="Page-1" stroke="none" stroke-width="1" fill="none" fill-rule="evenodd">
        <g id="Logo">
            <g id="mark" fill-rule="nonzero">
                <path d="M22.51,45 C4.5,45 0,40.5 0,22.5 C0,4.5 4.5,0 22.51,0 C40.52,0 45.02,4.5 45.02,22.5 C45.02,40.5 40.52,45 22.51,45" id="mark_bg" fill="#FFFFFF"></path>
                <g id="mark_symbol" transform="translate(10.000000, 10.000000)">
                    <path d="M14.47,18.93 L17.75,16.63 C20.07,15.01 23.28,15.83 24.53,18.35 C26.05,21.41 23.82,25 20.4,25 C18.62,25 16.99,23.99 16.19,22.39 L14.47,18.93 Z" id="Fill-3" fill="#57DBE9"></path>
                    <path d="M7.31,23.95 L14.47,18.93 L11.4,12.73 C9.71,9.34 4.87,9.34 3.19,12.73 L0.51,18.12 C-1.61,22.41 3.39,26.69 7.31,23.95" id="Fill-5" fill="#3A81D9"></path>
                    <path d="M16.74,2.64 C14.99,-0.88 9.95,-0.88 8.2,2.64 L2.58,13.97 L3.19,12.73 C4.87,9.34 9.71,9.34 11.4,12.73 L14.47,18.93 L17.75,16.63 C20.07,15.01 23.28,15.83 24.53,18.35 L24.53,18.35 L16.74,2.64 Z" id="Fill-7" fill="#0D41B9"></path>
                </g>
            </g>
            <path d="M169.64,20.93 L176.1,20.93 C175.9,20.12 175.53,19.5 174.99,19.04 C174.45,18.59 173.77,18.36 172.94,18.36 C172.13,18.36 171.43,18.58 170.85,19.02 C170.27,19.46 169.86,20.09 169.64,20.93 Z M169.62,23.76 C169.86,24.63 170.31,25.31 170.97,25.81 C171.62,26.31 172.42,26.56 173.36,26.57 C174.78,26.58 175.95,26.03 176.86,24.91 L179.41,27.29 C178.75,28.13 177.88,28.8 176.81,29.31 C175.73,29.81 174.49,30.06 173.08,30.06 C171.66,30.06 170.37,29.75 169.23,29.13 C168.09,28.51 167.18,27.62 166.52,26.45 C165.87,25.29 165.54,23.96 165.54,22.47 C165.54,21.37 165.72,20.35 166.09,19.41 C166.46,18.46 166.97,17.66 167.61,17 C168.25,16.34 169.02,15.83 169.92,15.46 C170.82,15.09 171.78,14.9 172.8,14.9 C174.22,14.9 175.48,15.22 176.57,15.86 C177.66,16.5 178.51,17.38 179.11,18.51 C179.7,19.64 180,20.92 180,22.35 C180,23.04 179.97,23.51 179.9,23.76 L169.62,23.76 Z M165.31,19.22 C164.92,19.2 164.57,19.18 164.27,19.18 C163.1,19.18 162.18,19.54 161.52,20.25 C160.86,20.97 160.53,21.88 160.53,23.01 L160.53,29.81 L156.61,29.81 L156.61,15.15 L160.53,15.15 L160.53,17.3 L160.58,17.3 C161.13,16.53 161.79,15.94 162.56,15.52 C163.32,15.11 164.13,14.9 165,14.9 C165.15,14.9 165.25,14.9 165.31,14.91 L165.31,19.22 Z M150.13,15.15 L154.06,15.15 L154.06,29.81 L150.13,29.81 L150.13,15.15 Z M149.99,11.89 C149.77,11.52 149.67,11.12 149.67,10.68 C149.67,10.02 149.9,9.46 150.38,8.99 C150.85,8.52 151.42,8.29 152.1,8.29 C152.76,8.29 153.33,8.52 153.81,8.99 C154.29,9.46 154.53,10.02 154.53,10.68 C154.53,11.34 154.29,11.91 153.81,12.38 C153.33,12.85 152.76,13.08 152.1,13.08 C151.66,13.08 151.25,12.97 150.87,12.76 C150.5,12.54 150.2,12.25 149.99,11.89 Z M143.87,22.54 C143.87,21.37 143.53,20.39 142.83,19.61 C142.13,18.82 141.25,18.43 140.18,18.43 C139.11,18.43 138.21,18.81 137.49,19.56 C136.77,20.31 136.42,21.31 136.42,22.54 C136.42,23.72 136.76,24.68 137.46,25.43 C138.16,26.17 139.06,26.54 140.17,26.54 C141.21,26.54 142.09,26.17 142.8,25.43 C143.52,24.68 143.87,23.72 143.87,22.54 Z M147.64,15.15 L147.64,29.81 L143.9,29.81 L143.9,28.04 L143.83,28.04 C142.79,29.39 141.32,30.06 139.45,30.06 C138.44,30.06 137.51,29.88 136.64,29.52 C135.78,29.16 135.04,28.65 134.41,28 C133.79,27.35 133.31,26.55 132.96,25.61 C132.6,24.67 132.43,23.64 132.43,22.52 C132.43,21.43 132.6,20.41 132.96,19.46 C133.31,18.51 133.79,17.7 134.4,17.04 C135.01,16.38 135.74,15.85 136.6,15.47 C137.45,15.09 138.36,14.9 139.33,14.9 C141.12,14.9 142.56,15.53 143.65,16.81 L143.71,16.81 L143.71,15.15 L147.64,15.15 Z M126.74,7.7 L130.67,7.7 L130.67,29.81 L126.74,29.81 L126.74,7.7 Z M124.28,15.15 L124.28,29.81 L120.35,29.81 L120.35,28.02 L120.29,28.02 C119.73,28.69 119.07,29.19 118.32,29.54 C117.57,29.89 116.78,30.06 115.94,30.06 C115.12,30.06 114.39,29.95 113.76,29.73 C113.12,29.51 112.56,29.17 112.06,28.7 C111.57,28.23 111.19,27.6 110.94,26.81 C110.68,26.01 110.55,25.07 110.55,23.98 L110.55,15.15 L114.47,15.15 L114.47,22.95 C114.47,24.27 114.68,25.2 115.08,25.73 C115.49,26.26 116.16,26.53 117.1,26.53 C118.02,26.53 118.79,26.16 119.41,25.41 C120.04,24.67 120.35,23.62 120.35,22.26 L120.35,15.15 L124.28,15.15 Z M104.57,22.19 C104.57,21.08 104.22,20.19 103.51,19.5 C102.8,18.82 101.92,18.48 100.86,18.48 C99.77,18.48 98.87,18.82 98.18,19.52 C97.49,20.21 97.14,21.11 97.14,22.22 C97.14,22.68 97.2,23.1 97.32,23.5 C97.45,23.9 97.62,24.24 97.84,24.55 C98.07,24.85 98.33,25.11 98.64,25.32 C98.95,25.54 99.29,25.7 99.67,25.82 C100.04,25.93 100.44,25.98 100.86,25.98 C101.95,25.98 102.84,25.63 103.53,24.91 C104.22,24.2 104.57,23.29 104.57,22.19 Z M108.32,15.15 L108.32,28.13 C108.32,29.06 108.24,29.92 108.07,30.71 C107.91,31.49 107.63,32.21 107.25,32.87 C106.87,33.53 106.39,34.09 105.8,34.55 C105.21,35.01 104.49,35.36 103.62,35.62 C102.76,35.87 101.78,36 100.67,36 C98.39,36 96.38,35.51 94.66,34.52 L95.57,31.2 C96.37,31.64 97.15,31.98 97.9,32.22 C98.65,32.45 99.47,32.57 100.33,32.57 C101.65,32.57 102.67,32.26 103.4,31.64 C104.12,31.03 104.48,30.25 104.48,29.31 L104.48,27.83 L104.41,27.83 C103.32,28.98 101.9,29.55 100.14,29.55 C98.81,29.55 97.61,29.24 96.55,28.64 C95.49,28.03 94.66,27.18 94.06,26.08 C93.45,24.98 93.15,23.73 93.15,22.33 C93.15,20.92 93.44,19.64 94.03,18.51 C94.61,17.37 95.42,16.49 96.45,15.85 C97.49,15.22 98.65,14.9 99.94,14.9 C100.78,14.9 101.58,15.05 102.34,15.35 C103.09,15.64 103.75,16.08 104.32,16.66 L104.39,16.66 L104.39,15.15 L108.32,15.15 Z M90.24,16.31 C90.73,16.79 91.09,17.43 91.35,18.24 C91.6,19.05 91.73,20.01 91.73,21.12 L91.73,29.83 L87.8,29.83 L87.8,22.1 C87.8,20.75 87.57,19.8 87.11,19.25 C86.65,18.71 85.95,18.43 84.99,18.43 C83.97,18.43 83.16,18.78 82.56,19.47 C81.96,20.17 81.66,21.16 81.66,22.44 L81.66,29.81 L77.73,29.81 L77.73,15.15 L81.66,15.15 L81.66,17.04 L81.71,17.04 C82.3,16.35 83.01,15.82 83.82,15.45 C84.64,15.08 85.5,14.9 86.41,14.9 C87.22,14.9 87.94,15.01 88.57,15.24 C89.2,15.47 89.76,15.83 90.24,16.31 Z M71.58,22.54 C71.58,21.37 71.23,20.39 70.53,19.61 C69.83,18.82 68.95,18.43 67.89,18.43 C66.81,18.43 65.91,18.81 65.2,19.56 C64.48,20.31 64.12,21.31 64.12,22.54 C64.12,23.72 64.47,24.68 65.17,25.43 C65.87,26.17 66.77,26.54 67.87,26.54 C68.92,26.54 69.8,26.17 70.51,25.43 C71.22,24.68 71.58,23.72 71.58,22.54 Z M75.34,15.15 L75.34,29.81 L71.61,29.81 L71.61,28.04 L71.53,28.04 C70.49,29.39 69.03,30.06 67.15,30.06 C66.15,30.06 65.21,29.88 64.35,29.52 C63.48,29.16 62.74,28.65 62.12,28 C61.5,27.35 61.01,26.55 60.66,25.61 C60.31,24.67 60.13,23.64 60.13,22.52 C60.13,21.43 60.31,20.41 60.66,19.46 C61.01,18.51 61.49,17.7 62.1,17.04 C62.71,16.38 63.45,15.85 64.3,15.47 C65.16,15.09 66.07,14.9 67.04,14.9 C68.82,14.9 70.26,15.53 71.36,16.81 L71.42,16.81 L71.42,15.15 L75.34,15.15 Z" id="logotype" fill="#000000"></path>
        </g>
    </g>
</svg>