<?xml version="1.0" encoding="UTF-8"?>
<svg width="113px" height="34px" viewBox="0 0 113 34" version="1.1" xmlns="http://www.w3.org/2000/svg" xmlns:xlink="http://www.w3.org/1999/xlink">
    <!-- Generator: Sketch 54.1 (76490) - https://sketchapp.com -->
    <title>Group</title>
    <desc>Created with Sketch.</desc>
    <g id="Page-2" stroke="none" stroke-width="1" fill="none" fill-rule="evenodd">
        <g id="Black" transform="translate(-944.000000, -441.000000)">
            <g id="Group" transform="translate(944.000000, 441.000000)">
                <path d="M47.9208427,15.334 L56.7057637,15.334 C56.7771859,15.9052 56.8009932,16.3812 56.8009932,16.7858 C56.8009932,21.6172 53.348924,25.092 48.5398345,25.092 C43.7069375,25.092 39.9453725,21.4506 39.9453725,16.762 C39.9453725,12.0972 43.6831302,8.432 48.4684123,8.432 C52.0157111,8.432 55.1344771,10.098 56.2534236,13.2158 L52.4680512,14.3106 C51.5395636,12.5018 50.0158916,12.0258 48.4684123,12.0258 C45.8734086,12.0258 43.8973965,14.0726 43.8973965,16.762 C43.8973965,19.4752 45.9210233,21.522 48.5874492,21.522 C50.6824981,21.522 52.2061701,20.4272 52.8013544,18.666 L47.9208427,18.666 L47.9208427,15.334 Z M66.9429345,12.6208 C67.2762378,12.6208 67.5143115,12.6446 67.8,12.716 L67.6333484,16.524 L66.9429345,16.524 C64.2765087,16.524 62.8242588,17.9044 62.8242588,20.9984 L62.8242588,24.735 L59.015079,24.735 L59.015079,12.7874 L62.8242588,12.7874 L62.8242588,15.0722 C63.6813243,13.6442 64.9907299,12.6208 66.9429345,12.6208 Z M71.5139503,7.0992 C72.7995485,7.0992 73.7280361,8.0988 73.7280361,9.265 C73.7280361,10.4788 72.7995485,11.3832 71.5139503,11.3832 C70.2283521,11.3832 69.3236719,10.4788 69.3236719,9.265 C69.3236719,8.0988 70.2283521,7.0992 71.5139503,7.0992 Z M73.4185403,24.735 L69.6093604,24.735 L69.6093604,12.7874 L73.4185403,12.7874 L73.4185403,24.735 Z M91.8454477,12.4304 C94.3928367,12.4304 96.4164635,14.3582 96.4164635,17.2618 L96.4164635,24.735 L92.631091,24.735 L92.631091,18.071 C92.631091,16.7144 91.7502182,15.8576 90.6312716,15.8576 C89.2266366,15.8576 88.298149,16.881 88.298149,18.8802 L88.298149,24.735 L84.4889691,24.735 L84.4889691,18.071 C84.4889691,16.7144 83.6080963,15.8576 82.4653424,15.8576 C81.0845147,15.8576 80.1798345,16.881 80.1798345,18.8802 L80.1798345,24.735 L76.3706546,24.735 L76.3706546,12.7874 L80.1798345,12.7874 L80.1798345,13.8822 C80.9892852,12.9778 82.1558465,12.4304 83.7033258,12.4304 C85.369842,12.4304 86.7982844,13.1444 87.6077351,14.4534 C88.5600301,13.2158 89.9884725,12.4304 91.8454477,12.4304 Z M106.534597,12.4304 C109.700978,12.4304 112.367404,15.0008 112.367404,18.7612 C112.367404,22.5454 109.700978,25.092 106.534597,25.092 C104.987118,25.092 103.749135,24.616 102.820647,23.783 L102.820647,30.447 L99.0114673,30.447 L99.0114673,12.7874 L102.820647,12.7874 L102.820647,13.7394 C103.749135,12.9064 104.987118,12.4304 106.534597,12.4304 Z M105.748954,21.8552 C107.41547,21.8552 108.629646,20.6176 108.629646,18.7612 C108.629646,16.9286 107.41547,15.6672 105.748954,15.6672 C104.201475,15.6672 102.820647,16.9286 102.820647,18.7612 C102.820647,20.6176 104.201475,21.8552 105.748954,21.8552 Z" id="Grimp" fill="#FFFFFF" fill-rule="nonzero"></path>
                <path d="M17.0052671,34 C3.40105342,34 0,30.6 0,17 C0,3.4 3.40105342,0 17.0052671,0 C30.6094808,0 34.0105342,3.4 34.0105342,17 C34.0105342,30.6 30.6094808,34 17.0052671,34 Z" id="Path" fill="#FFFFFF"></path>
                <path d="M14.126335,26.7537706 L11.6052609,24.3199517 C13.1969685,23.1116468 15.1822135,22.3944908 17.3350773,22.394384 C20.4776409,22.3940376 23.0253213,19.8471732 23.0253213,16.705616 C23.0253213,13.5640589 20.4776409,11.0171944 17.3347308,11.0171944 C14.1930334,11.0171944 11.6459595,13.5628465 11.6447467,16.703451 C11.6448903,18.8731707 10.9158633,20.872582 9.689266,22.47027 L7.22719389,20.0934111 C7.62608648,18.8512931 7.85132339,17.6394576 7.85168382,16.705616 L7.85107742,16.705616 C7.85107742,11.4695142 12.097298,7.225 17.3347308,7.225 C22.5727699,7.225 26.8187306,11.4695142 26.8187306,16.705616 C26.8187306,21.9413714 22.5731165,26.1863186 17.3353372,26.1863186 L17.3353372,26.1868382 C16.4465609,26.1868382 15.3056597,26.3905323 14.126335,26.7537706 Z" id="Combined-Shape" fill="#FFC282" transform="translate(17.022985, 16.989360) rotate(-44.000000) translate(-17.022985, -16.989360) "></path>
            </g>
        </g>
    </g>
</svg>