<?xml version="1.0" encoding="UTF-8"?>
<svg width="196px" height="45px" viewBox="0 0 196 45" version="1.1" xmlns="http://www.w3.org/2000/svg" xmlns:xlink="http://www.w3.org/1999/xlink">
    <!-- Generator: Sketch 54.1 (76490) - https://sketchapp.com -->
    <title>logo-dark</title>
    <desc>Created with Sketch.</desc>
    <g id="Page-1" stroke="none" stroke-width="1" fill="none" fill-rule="evenodd">
        <g id="logo-dark" fill-rule="nonzero">
            <rect id="Rectangle" stroke="#FA6400" stroke-width="0.803571429" fill="#FA6400" x="137.090148" y="22.6992869" width="11.2085399" height="11.2126246" rx="1.60714286"></rect>
            <path d="M162.243468,7.69827706 C163.310322,7.69827706 164.228131,7.32160295 164.996894,6.56825474 C165.765657,5.81490652 166.150039,4.90461065 166.150039,3.83736746 C166.150039,2.7858188 165.765657,1.88337054 164.996894,1.13002232 C164.228131,0.376674107 163.310322,0 162.243468,0 C161.160924,0 160.239194,0.376674107 159.478276,1.13002232 C158.717357,1.88337054 158.336898,2.7858188 158.336898,3.83736746 C158.336898,4.54363142 158.509477,5.19104004 158.854636,5.77959333 C159.199795,6.36814663 159.674388,6.83506545 160.278416,7.18035017 C160.882445,7.52563488 161.537461,7.69827706 162.243468,7.69827706 Z M159.089972,34.5598493 L165.396965,34.5598493 L165.396965,11.0177176 L159.089972,11.0177176 L159.089972,34.5598493 Z M183.306001,34.9600656 C185.722112,34.9600656 187.879355,34.4539098 189.777728,33.441598 C191.676102,32.4292864 193.158716,30.9971402 194.22557,29.145159 C195.292424,27.2931779 195.825852,25.1822337 195.825852,22.8123256 C195.825852,21.0231236 195.515993,19.3712506 194.896277,17.8567069 C194.276559,16.3421632 193.417584,15.0551933 192.319352,13.9957973 C191.221119,12.9364014 189.895396,12.1085029 188.342181,11.5121024 C186.788966,10.9157018 185.11024,10.6175014 183.306001,10.6175014 C181.470383,10.6175014 179.768123,10.9235491 178.199219,11.5356446 C176.630315,12.14774 175.304591,12.9913329 174.222048,14.0664237 C173.139505,15.1415145 172.296219,16.432408 171.692191,17.9391044 C171.088163,19.4458008 170.786149,21.0702078 170.786149,22.8123256 C170.786149,24.2091587 170.97834,25.527518 171.362721,26.7674038 C171.747102,28.0072895 172.307986,29.1255407 173.04537,30.1221575 C173.782755,31.1187743 174.657419,31.9780621 175.669362,32.7000209 C176.681304,33.4219797 177.838371,33.9791433 179.140561,34.3715123 C180.442751,34.7638813 181.831231,34.9600656 183.306001,34.9600656 Z M183.306001,29.309954 C181.51745,29.309954 180.046602,28.6860875 178.893459,27.4383545 C177.740315,26.1906215 177.163742,24.6486119 177.163742,22.8123256 C177.163742,20.9289551 177.73247,19.3712506 178.869925,18.1392125 C180.00738,16.9071744 181.486072,16.2911551 183.306001,16.2911551 C185.063173,16.2911551 186.522253,16.8993268 187.683241,18.1156703 C188.84423,19.3320139 189.424725,20.8975657 189.424725,22.8123256 C189.424725,24.6956962 188.836386,26.2494768 187.659708,27.4736677 C186.48303,28.6978585 185.031794,29.309954 183.306001,29.309954 Z" id="io" fill="#FFFFFF"></path>
            <path d="M18.0502369,11.0177176 L18.0502369,13.4425572 L17.9325692,13.4425572 C17.0226049,12.5165668 15.9596729,11.8142263 14.7437724,11.3355364 C13.527872,10.8568465 12.2452932,10.6175014 10.8960361,10.6175014 C8.82508323,10.6175014 6.95808798,11.127581 5.29504995,12.14774 C3.63201192,13.1678989 2.33374436,14.5882744 1.40024654,16.4088658 C0.466748727,18.2294572 0,20.2776227 0,22.5533621 C0,24.797712 0.482437885,26.8027169 1.44731365,28.5683768 C2.41218942,30.3340367 3.74575768,31.7034041 5.44801806,32.6764788 C7.15027844,33.6495535 9.07610798,34.136091 11.2255059,34.136091 C14.0495326,34.136091 16.3322874,33.2179478 18.0737705,31.3816616 L18.1914383,31.3816616 L18.1914383,33.7594169 C18.1914383,35.2661133 17.6109438,36.5138462 16.4499552,37.5026158 C15.2889666,38.4913853 13.6494621,38.9857701 11.5314422,38.9857701 C10.1351179,38.9857701 8.83292765,38.797433 7.62487193,38.4207589 C6.41681621,38.0440848 5.16953777,37.5026158 3.88303663,36.7963518 L2.42395619,42.1168736 C5.18522657,43.7020437 8.40147927,44.4946289 12.0727139,44.4946289 C13.845575,44.4946289 15.4262455,44.290597 16.8147253,43.8825335 C18.203205,43.4744699 19.368116,42.9016112 20.3094582,42.1639578 C21.2508004,41.4263045 22.0274078,40.5277797 22.6392803,39.4683838 C23.2511527,38.4089879 23.6904458,37.2514996 23.9571594,35.9959194 C24.2238729,34.7403391 24.3572297,33.3592006 24.3572297,31.8525042 L24.3572297,11.0177176 L18.0502369,11.0177176 Z M12.3786501,28.4153529 C11.7040214,28.4153529 11.0646934,28.3251082 10.4606653,28.1446185 C9.85663733,27.9641286 9.30752116,27.7012417 8.81331648,27.3559571 C8.3191118,27.0106723 7.89158543,26.5947616 7.5307377,26.1082241 C7.16988998,25.6216866 6.89140933,25.0605992 6.69529649,24.4249616 C6.49918365,23.7893241 6.40112705,23.1026785 6.40112705,22.3650251 C6.40112705,20.5915179 6.95808798,19.1476004 8.07200946,18.0332728 C9.18593096,16.9189454 10.6214779,16.3617815 12.3786501,16.3617815 C14.073066,16.3617815 15.4890018,16.9110978 16.6264568,18.0097308 C17.7639119,19.1083637 18.3326396,20.5444337 18.3326396,22.3179408 C18.3326396,24.091448 17.7756787,25.5510602 16.6617572,26.6967773 C15.5478357,27.8424945 14.1201332,28.4153529 12.3786501,28.4153529 Z M44.0077484,10.6175014 C42.6114243,10.6175014 41.3013896,10.951015 40.0776447,11.618042 C38.8538998,12.2850689 37.7948898,13.2385252 36.9006148,14.478411 L36.8300141,14.478411 L36.8300141,11.0177176 L30.5230213,11.0177176 L30.5230213,34.5598493 L36.8300141,34.5598493 L36.8300141,23.6363002 C36.8300141,21.8314033 37.3595191,20.3560967 38.418529,19.2103795 C39.4775391,18.0646623 40.9483863,17.4918038 42.8310707,17.4918038 C43.317431,17.4918038 43.8743915,17.515346 44.5019531,17.5624303 L44.5019531,10.6410435 C44.4078189,10.6253487 44.243084,10.6175014 44.0077484,10.6175014 Z M52.0326908,7.69827706 C53.0995452,7.69827706 54.0173539,7.32160295 54.7861168,6.56825474 C55.5548797,5.81490652 55.939261,4.90461065 55.939261,3.83736746 C55.939261,2.7858188 55.5548797,1.88337054 54.7861168,1.13002232 C54.0173539,0.376674107 53.0995452,0 52.0326908,0 C50.9501473,0 50.0284163,0.376674107 49.2674981,1.13002232 C48.5065799,1.88337054 48.1261207,2.7858188 48.1261207,3.83736746 C48.1261207,4.54363142 48.2987,5.19104004 48.6438588,5.77959333 C48.9890178,6.36814663 49.4636109,6.83506545 50.067639,7.18035017 C50.671667,7.52563488 51.3266842,7.69827706 52.0326908,7.69827706 Z M48.8791944,34.5598493 L55.1861873,34.5598493 L55.1861873,11.0177176 L48.8791944,11.0177176 L48.8791944,34.5598493 Z M90.5100536,10.6175014 C88.8156376,10.6175014 87.2663452,10.9431674 85.8621763,11.5944998 C84.4580074,12.2458323 83.2774078,13.1835938 82.3203767,14.4077846 L82.2497758,14.4077846 C80.8691405,11.8809292 78.5393186,10.6175014 75.2603099,10.6175014 C73.9424308,10.6175014 72.6716189,10.9196253 71.447874,11.5238735 C70.2241291,12.1281216 69.1494299,12.9952567 68.2237769,14.125279 L68.1531762,14.125279 L68.1531762,11.0177176 L61.8461834,11.0177176 L61.8461834,34.5598493 L68.1531762,34.5598493 L68.1531762,22.7887835 C68.1531762,21.4233398 68.3728227,20.2423094 68.8121158,19.2456927 C69.2514089,18.2490759 69.8397478,17.5074987 70.5771324,17.0209612 C71.314517,16.5344237 72.161725,16.2911551 73.1187564,16.2911551 C75.895716,16.2911551 77.2841957,18.3314733 77.2841957,22.4121094 L77.2841957,34.5833915 L83.5911885,34.5833915 L83.5911885,22.7887835 C83.5911885,21.4233398 83.806913,20.2423094 84.2383612,19.2456927 C84.6698095,18.2490759 85.246382,17.5074987 85.9680773,17.0209612 C86.6897734,16.5344237 87.4977585,16.2911551 88.3920334,16.2911551 C91.1376151,16.2911551 92.5104063,18.3314733 92.5104063,22.4121094 L92.5104063,34.5833915 L98.8173987,34.5833915 L98.8173987,20.8818708 C98.8173987,17.3976353 98.091781,14.8158481 96.6405448,13.1365094 C95.1893086,11.4571708 93.1458118,10.6175014 90.5100536,10.6175014 Z M118.397317,10.6175014 C115.400711,10.6175014 113.023822,11.6533552 111.26665,13.7250628 L111.172516,13.7250628 L111.172516,11.0177176 L104.865523,11.0177176 L104.865523,44.0944127 L111.172516,44.0944127 L111.172516,31.9231306 L111.26665,31.9231306 C112.945377,33.9477539 115.259509,34.9600656 118.209048,34.9600656 C119.825019,34.9600656 121.327244,34.6697127 122.715725,34.0890067 C124.104204,33.5083007 125.296571,32.6960971 126.292825,31.652396 C127.289078,30.608695 128.069608,29.3295723 128.634414,27.8150286 C129.199219,26.3004849 129.481621,24.6486119 129.481621,22.8594099 C129.481621,21.446882 129.301198,20.1089043 128.94035,18.8454764 C128.579502,17.5820486 128.065686,16.4520263 127.398902,15.4554094 C126.732118,14.4587927 125.943744,13.595581 125.03378,12.865775 C124.123815,12.1359689 123.100105,11.578805 121.962651,11.1942837 C120.825195,10.8097623 119.636751,10.6175014 118.397317,10.6175014 Z M117.055904,29.309954 C115.910605,29.309954 114.871206,29.0470667 113.937708,28.5212926 C113.00421,27.9955184 112.266826,27.2382464 111.725554,26.2494768 C111.184282,25.2607073 110.913646,24.1385323 110.913646,22.882952 C110.913646,21.9569616 111.066615,21.0859027 111.372551,20.2697754 C111.678487,19.453648 112.098168,18.7552317 112.631596,18.1745257 C113.165023,17.5938196 113.812196,17.134748 114.573114,16.797311 C115.334032,16.4598739 116.161629,16.2911551 117.055904,16.2911551 C118.781698,16.2911551 120.217245,16.8954033 121.362545,18.1038993 C122.507845,19.3123953 123.080494,20.9054129 123.080494,22.882952 C123.080494,24.7820174 122.519611,26.3279505 121.397845,27.520752 C120.276079,28.7135534 118.828765,29.309954 117.055904,29.309954 Z" id="grimp" fill="#FFFFFF"></path>
        </g>
    </g>
</svg>